<svg width="88" height="89" viewBox="0 0 88 89" fill="none" xmlns="http://www.w3.org/2000/svg">
<mask id="path-1-outside-1_33_5" maskUnits="userSpaceOnUse" x="0" y="0.109131" width="88" height="88" fill="black">
<rect fill="white" y="0.109131" width="88" height="88"/>
<path fill-rule="evenodd" clip-rule="evenodd" d="M36.429 44.5L5.10913 75.8198L12.1802 82.8909L43.5 51.5711L75.7107 83.7817L82.7818 76.7107L50.5711 44.5L82.8909 12.1802L75.8198 5.10915L43.5 37.4289L12.0711 5.99999L5.00002 13.0711L36.429 44.5Z"/>
</mask>
<path fill-rule="evenodd" clip-rule="evenodd" d="M36.429 44.5L5.10913 75.8198L12.1802 82.8909L43.5 51.5711L75.7107 83.7817L82.7818 76.7107L50.5711 44.5L82.8909 12.1802L75.8198 5.10915L43.5 37.4289L12.0711 5.99999L5.00002 13.0711L36.429 44.5Z" fill="black"/>
<path d="M5.10913 75.8198L2.98781 73.6985L0.86649 75.8198L2.98781 77.9411L5.10913 75.8198ZM36.429 44.5L38.5503 46.6213L40.6716 44.5L38.5503 42.3787L36.429 44.5ZM12.1802 82.8909L10.0589 85.0122L12.1802 87.1335L14.3015 85.0122L12.1802 82.8909ZM43.5 51.5711L45.6213 49.4497L43.5 47.3284L41.3787 49.4497L43.5 51.5711ZM75.7107 83.7817L73.5894 85.9031L75.7107 88.0244L77.832 85.9031L75.7107 83.7817ZM82.7818 76.7107L84.9031 78.832L87.0244 76.7107L84.9031 74.5894L82.7818 76.7107ZM50.5711 44.5L48.4498 42.3787L46.3284 44.5L48.4498 46.6213L50.5711 44.5ZM82.8909 12.1802L85.0122 14.3015L87.1335 12.1802L85.0122 10.0589L82.8909 12.1802ZM75.8198 5.10915L77.9411 2.98783L75.8198 0.866507L73.6985 2.98783L75.8198 5.10915ZM43.5 37.4289L41.3787 39.5503L43.5 41.6716L45.6213 39.5503L43.5 37.4289ZM12.0711 5.99999L14.1924 3.87867L12.0711 1.75735L9.94976 3.87867L12.0711 5.99999ZM5.00002 13.0711L2.8787 10.9497L0.757376 13.0711L2.8787 15.1924L5.00002 13.0711ZM7.23045 77.9411L38.5503 46.6213L34.3076 42.3787L2.98781 73.6985L7.23045 77.9411ZM14.3015 80.7696L7.23045 73.6985L2.98781 77.9411L10.0589 85.0122L14.3015 80.7696ZM41.3787 49.4497L10.0589 80.7696L14.3015 85.0122L45.6213 53.6924L41.3787 49.4497ZM77.832 81.6604L45.6213 49.4497L41.3787 53.6924L73.5894 85.9031L77.832 81.6604ZM80.6604 74.5894L73.5894 81.6604L77.832 85.9031L84.9031 78.832L80.6604 74.5894ZM48.4498 46.6213L80.6604 78.832L84.9031 74.5894L52.6924 42.3787L48.4498 46.6213ZM80.7696 10.0589L48.4498 42.3787L52.6924 46.6213L85.0122 14.3015L80.7696 10.0589ZM73.6985 7.23047L80.7696 14.3015L85.0122 10.0589L77.9411 2.98783L73.6985 7.23047ZM45.6213 39.5503L77.9411 7.23047L73.6985 2.98783L41.3787 35.3076L45.6213 39.5503ZM9.94976 8.12131L41.3787 39.5503L45.6213 35.3076L14.1924 3.87867L9.94976 8.12131ZM7.12134 15.1924L14.1924 8.12131L9.94976 3.87867L2.8787 10.9497L7.12134 15.1924ZM38.5503 42.3787L7.12134 10.9497L2.8787 15.1924L34.3076 46.6213L38.5503 42.3787Z" fill="black" mask="url(#path-1-outside-1_33_5)"/>
</svg>
