<svg width="585" height="166" viewBox="0 0 585 166" fill="none" xmlns="http://www.w3.org/2000/svg">
<rect x="7" y="39" width="16" height="94" fill="#A70000"/>
<rect y="32" width="30" height="14" fill="#A70000"/>
<rect y="119" width="30" height="14" fill="#A70000"/>
<rect x="24.8995" y="21.2132" width="16" height="94" transform="rotate(-45 24.8995 21.2132)" fill="#A70000"/>
<rect x="15" y="21.2132" width="30" height="14" transform="rotate(-45 15 21.2132)" fill="#A70000"/>
<rect x="76.5183" y="82.7315" width="30" height="14" transform="rotate(-45 76.5183 82.7315)" fill="#A70000"/>
<rect x="36.2132" y="155.731" width="16" height="94" transform="rotate(-135 36.2132 155.731)" fill="#A70000"/>
<rect x="36.2132" y="165.631" width="30" height="14" transform="rotate(-135 36.2132 165.631)" fill="#A70000"/>
<rect x="97.7315" y="104.113" width="30" height="14" transform="rotate(-135 97.7315 104.113)" fill="#A70000"/>
<path d="M157.792 37.296C159.328 40.112 161.077 43.6107 163.04 47.792C165.088 51.888 167.179 56.368 169.312 61.232C171.531 66.0107 173.707 70.9173 175.84 75.952C177.973 80.9867 179.979 85.7227 181.856 90.16C183.733 85.7227 185.739 80.9867 187.872 75.952C190.005 70.9173 192.139 66.0107 194.272 61.232C196.491 56.368 198.581 51.888 200.544 47.792C202.592 43.6107 204.384 40.112 205.92 37.296H224.096C224.949 43.184 225.717 49.7973 226.4 57.136C227.168 64.3893 227.808 71.984 228.32 79.92C228.917 87.7707 229.429 95.664 229.856 103.6C230.368 111.536 230.795 119.003 231.136 126H211.68C211.424 117.381 211.083 107.995 210.656 97.84C210.229 87.6853 209.589 77.4453 208.736 67.12C207.2 70.704 205.493 74.672 203.616 79.024C201.739 83.376 199.861 87.728 197.984 92.08C196.192 96.432 194.443 100.613 192.736 104.624C191.029 108.549 189.579 111.92 188.384 114.736H174.432C173.237 111.92 171.787 108.549 170.08 104.624C168.373 100.613 166.581 96.432 164.704 92.08C162.912 87.728 161.077 83.376 159.2 79.024C157.323 74.672 155.616 70.704 154.08 67.12C153.227 77.4453 152.587 87.6853 152.16 97.84C151.733 107.995 151.392 117.381 151.136 126H131.68C132.021 119.003 132.405 111.536 132.832 103.6C133.344 95.664 133.856 87.7707 134.368 79.92C134.965 71.984 135.605 64.3893 136.288 57.136C137.056 49.7973 137.867 43.184 138.72 37.296H157.792ZM244.635 92.848C244.635 86.8747 245.531 81.6693 247.323 77.232C249.2 72.7093 251.632 68.9547 254.619 65.968C257.606 62.9813 261.019 60.72 264.859 59.184C268.784 57.648 272.795 56.88 276.891 56.88C286.448 56.88 294 59.824 299.547 65.712C305.094 71.5147 307.867 80.0907 307.867 91.44C307.867 92.5493 307.824 93.7867 307.739 95.152C307.654 96.432 307.568 97.584 307.483 98.608H264.219C264.646 102.533 266.48 105.648 269.723 107.952C272.966 110.256 277.318 111.408 282.779 111.408C286.278 111.408 289.691 111.109 293.019 110.512C296.432 109.829 299.206 109.019 301.339 108.08L303.899 123.568C302.875 124.08 301.51 124.592 299.803 125.104C298.096 125.616 296.176 126.043 294.043 126.384C291.995 126.811 289.776 127.152 287.387 127.408C284.998 127.664 282.608 127.792 280.219 127.792C274.16 127.792 268.87 126.896 264.347 125.104C259.91 123.312 256.198 120.88 253.211 117.808C250.31 114.651 248.134 110.939 246.683 106.672C245.318 102.405 244.635 97.7973 244.635 92.848ZM289.435 85.552C289.35 83.9307 289.051 82.352 288.539 80.816C288.112 79.28 287.387 77.9147 286.363 76.72C285.424 75.5253 284.187 74.544 282.651 73.776C281.2 73.008 279.366 72.624 277.147 72.624C275.014 72.624 273.179 73.008 271.643 73.776C270.107 74.4587 268.827 75.3973 267.803 76.592C266.779 77.7867 265.968 79.1947 265.371 80.816C264.859 82.352 264.475 83.9307 264.219 85.552H289.435ZM350.489 36.272C363.716 36.272 373.87 38.6187 380.953 43.312C388.036 47.92 391.577 55.5147 391.577 66.096C391.577 76.7627 387.993 84.4853 380.825 89.264C373.657 93.9573 363.417 96.304 350.105 96.304H343.833V126H323.865V38.576C328.217 37.7227 332.825 37.1253 337.689 36.784C342.553 36.4427 346.82 36.272 350.489 36.272ZM351.769 53.296C350.318 53.296 348.868 53.3387 347.417 53.424C346.052 53.5093 344.857 53.5947 343.833 53.68V79.28H350.105C357.017 79.28 362.222 78.3413 365.721 76.464C369.22 74.5867 370.969 71.088 370.969 65.968C370.969 63.4933 370.5 61.4453 369.561 59.824C368.708 58.2027 367.428 56.9227 365.721 55.984C364.1 54.96 362.094 54.2773 359.705 53.936C357.316 53.5093 354.67 53.296 351.769 53.296ZM424.032 126H404.96V58.672H424.032V126ZM425.824 39.216C425.824 42.7147 424.672 45.488 422.368 47.536C420.149 49.4987 417.504 50.48 414.432 50.48C411.36 50.48 408.672 49.4987 406.368 47.536C404.149 45.488 403.04 42.7147 403.04 39.216C403.04 35.7173 404.149 32.9867 406.368 31.024C408.672 28.976 411.36 27.952 414.432 27.952C417.504 27.952 420.149 28.976 422.368 31.024C424.672 32.9867 425.824 35.7173 425.824 39.216ZM485.096 92.848C485.096 86.96 483.773 82.2667 481.128 78.768C478.483 75.184 474.557 73.392 469.352 73.392C467.645 73.392 466.067 73.4773 464.616 73.648C463.165 73.7333 461.971 73.8613 461.032 74.032V108.464C462.227 109.232 463.763 109.872 465.64 110.384C467.603 110.896 469.565 111.152 471.528 111.152C480.573 111.152 485.096 105.051 485.096 92.848ZM504.552 92.336C504.552 97.5413 503.912 102.277 502.632 106.544C501.352 110.811 499.475 114.48 497 117.552C494.525 120.624 491.453 123.013 487.784 124.72C484.115 126.427 479.891 127.28 475.112 127.28C472.467 127.28 469.992 127.024 467.688 126.512C465.384 126 463.165 125.275 461.032 124.336V149.68H441.96V60.976C443.667 60.464 445.629 59.9947 447.848 59.568C450.067 59.056 452.371 58.6293 454.76 58.288C457.235 57.9467 459.709 57.6907 462.184 57.52C464.744 57.264 467.176 57.136 469.48 57.136C475.027 57.136 479.976 57.9893 484.328 59.696C488.68 61.3173 492.349 63.664 495.336 66.736C498.323 69.7227 500.584 73.392 502.12 77.744C503.741 82.096 504.552 86.96 504.552 92.336ZM516.01 92.848C516.01 86.8747 516.906 81.6693 518.698 77.232C520.575 72.7093 523.007 68.9547 525.994 65.968C528.981 62.9813 532.394 60.72 536.234 59.184C540.159 57.648 544.17 56.88 548.266 56.88C557.823 56.88 565.375 59.824 570.922 65.712C576.469 71.5147 579.242 80.0907 579.242 91.44C579.242 92.5493 579.199 93.7867 579.114 95.152C579.029 96.432 578.943 97.584 578.858 98.608H535.594C536.021 102.533 537.855 105.648 541.098 107.952C544.341 110.256 548.693 111.408 554.154 111.408C557.653 111.408 561.066 111.109 564.394 110.512C567.807 109.829 570.581 109.019 572.714 108.08L575.274 123.568C574.25 124.08 572.885 124.592 571.178 125.104C569.471 125.616 567.551 126.043 565.418 126.384C563.37 126.811 561.151 127.152 558.762 127.408C556.373 127.664 553.983 127.792 551.594 127.792C545.535 127.792 540.245 126.896 535.722 125.104C531.285 123.312 527.573 120.88 524.586 117.808C521.685 114.651 519.509 110.939 518.058 106.672C516.693 102.405 516.01 97.7973 516.01 92.848ZM560.81 85.552C560.725 83.9307 560.426 82.352 559.914 80.816C559.487 79.28 558.762 77.9147 557.738 76.72C556.799 75.5253 555.562 74.544 554.026 73.776C552.575 73.008 550.741 72.624 548.522 72.624C546.389 72.624 544.554 73.008 543.018 73.776C541.482 74.4587 540.202 75.3973 539.178 76.592C538.154 77.7867 537.343 79.1947 536.746 80.816C536.234 82.352 535.85 83.9307 535.594 85.552H560.81Z" fill="#A70000"/>
</svg>
