<svg width="71" height="71" viewBox="0 0 71 71" fill="none" xmlns="http://www.w3.org/2000/svg">
<path d="M17.9954 5.9248L23.8889 8.64914L29.7824 5.9248L27.0725 11.8496L29.7824 17.7744L23.8889 15.0501L17.9954 17.7744L20.7053 11.8496L17.9954 5.9248Z" fill="black"/>
<path d="M53.3194 5.9248L59.213 8.64914L65.1065 5.9248L62.3965 11.8496L65.1065 17.7744L59.213 15.0501L53.3194 17.7744L56.0294 11.8496L53.3194 5.9248Z" fill="black"/>
<path d="M53.3194 41.4363L59.213 44.1607L65.1065 41.4363L62.3965 47.3611L65.1065 53.2859L59.213 50.5616L53.3194 53.2859L56.0294 47.3611L53.3194 41.4363Z" fill="black"/>
<rect x="0.705233" width="10.1313" height="11.1433" transform="matrix(0.705233 -0.708976 0.705233 0.708976 34.4633 28.4535)" fill="white" stroke="black"/>
<rect x="0.705233" width="47.9119" height="11.1433" transform="matrix(0.705233 -0.708976 0.705233 0.708976 0.207879 62.8907)" fill="black" stroke="black"/>
</svg>
