<svg width="71" height="71" viewBox="0 0 71 71" fill="none" xmlns="http://www.w3.org/2000/svg">
<rect width="11.1313" height="12.1433" transform="matrix(0.705233 -0.708976 0.705233 0.708976 34.2554 27.9536)" fill="black"/>
<rect x="0.705233" width="58.7045" height="11.1433" transform="matrix(0.705233 -0.708976 0.705233 0.708976 0.207879 62.8907)" stroke="black"/>
<path d="M19.0114 6.94628L23.6806 9.10462L23.8889 9.20092L24.0972 9.10462L28.7663 6.94628L26.6194 11.6402L26.5236 11.8496L26.6194 12.059L28.7663 16.7529L24.0972 14.5946L23.8889 14.4983L23.6806 14.5946L19.0114 16.7529L21.1584 12.059L21.2542 11.8496L21.1584 11.6402L19.0114 6.94628Z" stroke="black"/>
<path d="M54.3355 6.94628L59.0046 9.10462L59.213 9.20092L59.4213 9.10462L64.0904 6.94628L61.9435 11.6402L61.8477 11.8496L61.9435 12.059L64.0904 16.7529L59.4213 14.5946L59.213 14.4983L59.0046 14.5946L54.3355 16.7529L56.4825 12.059L56.5782 11.8496L56.4825 11.6402L54.3355 6.94628Z" stroke="black"/>
<path d="M54.3355 42.4578L59.0046 44.6162L59.213 44.7125L59.4213 44.6162L64.0904 42.4578L61.9435 47.1517L61.8477 47.3611L61.9435 47.5706L64.0904 52.2645L59.4213 50.1061L59.213 50.0098L59.0046 50.1061L54.3355 52.2645L56.4825 47.5706L56.5782 47.3611L56.4825 47.1517L54.3355 42.4578Z" stroke="black"/>
</svg>
