<svg width="237" height="78" viewBox="0 0 237 78" fill="none" xmlns="http://www.w3.org/2000/svg">
<circle cx="39" cy="39" r="36.5" stroke="#2386E1" stroke-width="5"/>
<mask id="path-2-inside-1_14_44" fill="white">
<path fill-rule="evenodd" clip-rule="evenodd" d="M11.1296 66.2808C15.5993 54.9877 26.6168 47 39.5 47C52.1028 47 62.9203 54.6438 67.5693 65.5482C60.4481 73.2081 50.2836 78 39 78C28.0805 78 18.2092 73.5124 11.1296 66.2808Z"/>
</mask>
<path d="M11.1296 66.2808L6.48053 64.4408L5.28595 67.4591L7.55675 69.7786L11.1296 66.2808ZM67.5693 65.5482L71.2312 68.9527L73.4422 66.5744L72.1687 63.5873L67.5693 65.5482ZM15.7788 68.1209C19.5191 58.6703 28.7367 52 39.5 52V42C24.4969 42 11.6794 51.3052 6.48053 64.4408L15.7788 68.1209ZM39.5 52C50.029 52 59.0787 58.3823 62.9698 67.5092L72.1687 63.5873C66.7619 50.9054 54.1766 42 39.5 42V52ZM63.9073 62.1438C57.6925 68.8288 48.8372 73 39 73V83C51.7301 83 63.2037 77.5874 71.2312 68.9527L63.9073 62.1438ZM39 73C29.4794 73 20.8803 69.0934 14.7025 62.7831L7.55675 69.7786C15.5381 77.9313 26.6816 83 39 83V73Z" fill="#2386E1" mask="url(#path-2-inside-1_14_44)"/>
<circle cx="39.5" cy="30.5" r="14" stroke="#2386E1" stroke-width="5"/>
<path d="M111.104 56.288C110.432 56.288 109.696 56.272 108.896 56.24C108.128 56.208 107.344 56.16 106.544 56.096C105.776 56.032 105.008 55.952 104.24 55.856C103.472 55.76 102.768 55.632 102.128 55.472V23.216C102.768 23.056 103.472 22.928 104.24 22.832C105.008 22.736 105.776 22.656 106.544 22.592C107.344 22.528 108.128 22.48 108.896 22.448C109.664 22.416 110.384 22.4 111.056 22.4C112.976 22.4 114.768 22.544 116.432 22.832C118.128 23.12 119.584 23.616 120.8 24.32C122.048 24.992 123.024 25.888 123.728 27.008C124.432 28.128 124.784 29.504 124.784 31.136C124.784 32.96 124.352 34.464 123.488 35.648C122.624 36.8 121.472 37.664 120.032 38.24C121.984 38.816 123.536 39.728 124.688 40.976C125.84 42.224 126.416 43.984 126.416 46.256C126.416 49.584 125.184 52.096 122.72 53.792C120.288 55.456 116.416 56.288 111.104 56.288ZM106.736 40.496V52.208C107.088 52.24 107.504 52.272 107.984 52.304C108.4 52.336 108.88 52.368 109.424 52.4C110 52.4 110.656 52.4 111.392 52.4C112.768 52.4 114.064 52.32 115.28 52.16C116.528 51.968 117.616 51.648 118.544 51.2C119.472 50.752 120.208 50.128 120.752 49.328C121.328 48.528 121.616 47.52 121.616 46.304C121.616 45.216 121.408 44.304 120.992 43.568C120.576 42.8 119.968 42.192 119.168 41.744C118.4 41.296 117.472 40.976 116.384 40.784C115.296 40.592 114.08 40.496 112.736 40.496H106.736ZM106.736 36.752H111.632C112.784 36.752 113.872 36.672 114.896 36.512C115.92 36.352 116.8 36.064 117.536 35.648C118.304 35.232 118.896 34.688 119.312 34.016C119.76 33.344 119.984 32.496 119.984 31.472C119.984 30.512 119.76 29.712 119.312 29.072C118.864 28.4 118.24 27.872 117.44 27.488C116.672 27.072 115.76 26.768 114.704 26.576C113.648 26.384 112.528 26.288 111.344 26.288C110.16 26.288 109.232 26.304 108.56 26.336C107.888 26.368 107.28 26.416 106.736 26.48V36.752ZM154.716 43.52C154.716 45.504 154.428 47.296 153.852 48.896C153.276 50.496 152.46 51.872 151.404 53.024C150.38 54.176 149.148 55.072 147.708 55.712C146.268 56.32 144.7 56.624 143.004 56.624C141.308 56.624 139.74 56.32 138.3 55.712C136.86 55.072 135.612 54.176 134.556 53.024C133.532 51.872 132.732 50.496 132.156 48.896C131.58 47.296 131.292 45.504 131.292 43.52C131.292 41.568 131.58 39.792 132.156 38.192C132.732 36.56 133.532 35.168 134.556 34.016C135.612 32.864 136.86 31.984 138.3 31.376C139.74 30.736 141.308 30.416 143.004 30.416C144.7 30.416 146.268 30.736 147.708 31.376C149.148 31.984 150.38 32.864 151.404 34.016C152.46 35.168 153.276 36.56 153.852 38.192C154.428 39.792 154.716 41.568 154.716 43.52ZM150.06 43.52C150.06 40.704 149.42 38.48 148.14 36.848C146.892 35.184 145.18 34.352 143.004 34.352C140.828 34.352 139.1 35.184 137.82 36.848C136.572 38.48 135.948 40.704 135.948 43.52C135.948 46.336 136.572 48.576 137.82 50.24C139.1 51.872 140.828 52.688 143.004 52.688C145.18 52.688 146.892 51.872 148.14 50.24C149.42 48.576 150.06 46.336 150.06 43.52ZM181.972 31.04V56H177.652V36.992C176.692 38.208 175.636 39.632 174.484 41.264C173.332 42.896 172.18 44.592 171.028 46.352C169.876 48.08 168.772 49.792 167.716 51.488C166.66 53.184 165.748 54.688 164.98 56H160.996V31.04H165.316V48.992C166.148 47.616 167.092 46.112 168.148 44.48C169.204 42.816 170.292 41.184 171.412 39.584C172.564 37.952 173.7 36.4 174.82 34.928C175.972 33.424 177.044 32.128 178.036 31.04H181.972ZM171.508 27.008C169.492 27.008 167.844 26.496 166.564 25.472C165.316 24.448 164.564 23.024 164.308 21.2L167.716 20.288C167.972 21.312 168.404 22.144 169.012 22.784C169.62 23.424 170.452 23.744 171.508 23.744C172.564 23.744 173.396 23.424 174.004 22.784C174.612 22.144 175.044 21.312 175.3 20.288L178.66 21.2C178.404 23.024 177.652 24.448 176.404 25.472C175.156 26.496 173.524 27.008 171.508 27.008ZM207.253 31.04V34.784H199.141V56H194.677V34.784H186.565V31.04H207.253ZM232.832 31.04V56H228.512V36.992C227.552 38.208 226.496 39.632 225.344 41.264C224.192 42.896 223.04 44.592 221.888 46.352C220.736 48.08 219.632 49.792 218.576 51.488C217.52 53.184 216.608 54.688 215.84 56H211.856V31.04H216.176V48.992C217.008 47.616 217.952 46.112 219.008 44.48C220.064 42.816 221.152 41.184 222.272 39.584C223.424 37.952 224.56 36.4 225.68 34.928C226.832 33.424 227.904 32.128 228.896 31.04H232.832Z" fill="#2386E1"/>
</svg>
