<svg width="592" height="166" viewBox="0 0 592 166" fill="none" xmlns="http://www.w3.org/2000/svg">
<rect x="7" y="39" width="16" height="94" fill="#A70000"/>
<rect y="32" width="30" height="14" fill="#A70000"/>
<rect y="119" width="30" height="14" fill="#A70000"/>
<rect x="24.8995" y="21.2132" width="16" height="94" transform="rotate(-45 24.8995 21.2132)" fill="#A70000"/>
<rect x="15" y="21.2132" width="30" height="14" transform="rotate(-45 15 21.2132)" fill="#A70000"/>
<rect x="76.5183" y="82.7315" width="30" height="14" transform="rotate(-45 76.5183 82.7315)" fill="#A70000"/>
<rect x="36.2132" y="155.731" width="16" height="94" transform="rotate(-135 36.2132 155.731)" fill="#A70000"/>
<rect x="36.2132" y="165.631" width="30" height="14" transform="rotate(-135 36.2132 165.631)" fill="#A70000"/>
<rect x="97.7315" y="104.113" width="30" height="14" transform="rotate(-135 97.7315 104.113)" fill="#A70000"/>
<path d="M174.688 127.792C160.267 127.792 149.259 123.781 141.664 115.76C134.155 107.739 130.4 96.3467 130.4 81.584C130.4 74.2453 131.552 67.7173 133.856 62C136.16 56.1973 139.317 51.3333 143.328 47.408C147.339 43.3973 152.117 40.368 157.664 38.32C163.211 36.272 169.227 35.248 175.712 35.248C179.467 35.248 182.88 35.5467 185.952 36.144C189.024 36.656 191.712 37.296 194.016 38.064C196.32 38.7467 198.24 39.472 199.776 40.24C201.312 41.008 202.421 41.6053 203.104 42.032L197.344 58.16C194.613 56.7093 191.413 55.472 187.744 54.448C184.16 53.424 180.064 52.912 175.456 52.912C172.384 52.912 169.355 53.424 166.368 54.448C163.467 55.472 160.864 57.136 158.56 59.44C156.341 61.6587 154.549 64.56 153.184 68.144C151.819 71.728 151.136 76.08 151.136 81.2C151.136 85.296 151.563 89.136 152.416 92.72C153.355 96.2187 154.805 99.248 156.768 101.808C158.816 104.368 161.461 106.416 164.704 107.952C167.947 109.403 171.872 110.128 176.48 110.128C179.381 110.128 181.984 109.957 184.288 109.616C186.592 109.275 188.64 108.891 190.432 108.464C192.224 107.952 193.803 107.397 195.168 106.8C196.533 106.203 197.771 105.648 198.88 105.136L204.384 121.136C201.568 122.843 197.6 124.379 192.48 125.744C187.36 127.109 181.429 127.792 174.688 127.792ZM256.536 75.568C254.829 75.1413 252.824 74.7147 250.52 74.288C248.216 73.776 245.741 73.52 243.096 73.52C241.901 73.52 240.451 73.648 238.744 73.904C237.123 74.0747 235.885 74.288 235.032 74.544V126H215.96V62.256C219.373 61.0613 223.384 59.952 227.992 58.928C232.685 57.8187 237.891 57.264 243.608 57.264C244.632 57.264 245.869 57.3493 247.32 57.52C248.771 57.6053 250.221 57.776 251.672 58.032C253.123 58.2027 254.573 58.4587 256.024 58.8C257.475 59.056 258.712 59.3973 259.736 59.824L256.536 75.568ZM265.51 92.848C265.51 86.8747 266.406 81.6693 268.198 77.232C270.075 72.7093 272.507 68.9547 275.494 65.968C278.481 62.9813 281.894 60.72 285.734 59.184C289.659 57.648 293.67 56.88 297.766 56.88C307.323 56.88 314.875 59.824 320.422 65.712C325.969 71.5147 328.742 80.0907 328.742 91.44C328.742 92.5493 328.699 93.7867 328.614 95.152C328.529 96.432 328.443 97.584 328.358 98.608H285.094C285.521 102.533 287.355 105.648 290.598 107.952C293.841 110.256 298.193 111.408 303.654 111.408C307.153 111.408 310.566 111.109 313.894 110.512C317.307 109.829 320.081 109.019 322.214 108.08L324.774 123.568C323.75 124.08 322.385 124.592 320.678 125.104C318.971 125.616 317.051 126.043 314.918 126.384C312.87 126.811 310.651 127.152 308.262 127.408C305.873 127.664 303.483 127.792 301.094 127.792C295.035 127.792 289.745 126.896 285.222 125.104C280.785 123.312 277.073 120.88 274.086 117.808C271.185 114.651 269.009 110.939 267.558 106.672C266.193 102.405 265.51 97.7973 265.51 92.848ZM310.31 85.552C310.225 83.9307 309.926 82.352 309.414 80.816C308.987 79.28 308.262 77.9147 307.238 76.72C306.299 75.5253 305.062 74.544 303.526 73.776C302.075 73.008 300.241 72.624 298.022 72.624C295.889 72.624 294.054 73.008 292.518 73.776C290.982 74.4587 289.702 75.3973 288.678 76.592C287.654 77.7867 286.843 79.1947 286.246 80.816C285.734 82.352 285.35 83.9307 285.094 85.552H310.31ZM369.188 112.688C371.065 112.688 372.857 112.645 374.564 112.56C376.271 112.475 377.636 112.347 378.66 112.176V97.712C377.892 97.5413 376.74 97.3707 375.204 97.2C373.668 97.0293 372.26 96.944 370.98 96.944C369.188 96.944 367.481 97.072 365.86 97.328C364.324 97.4987 362.959 97.8827 361.764 98.48C360.569 99.0773 359.631 99.888 358.948 100.912C358.265 101.936 357.924 103.216 357.924 104.752C357.924 107.739 358.905 109.829 360.868 111.024C362.916 112.133 365.689 112.688 369.188 112.688ZM367.652 56.88C373.284 56.88 377.977 57.52 381.732 58.8C385.487 60.08 388.473 61.9147 390.692 64.304C392.996 66.6933 394.617 69.5947 395.556 73.008C396.495 76.4213 396.964 80.2187 396.964 84.4V124.08C394.233 124.677 390.436 125.36 385.572 126.128C380.708 126.981 374.82 127.408 367.908 127.408C363.556 127.408 359.588 127.024 356.004 126.256C352.505 125.488 349.476 124.251 346.916 122.544C344.356 120.752 342.393 118.448 341.028 115.632C339.663 112.816 338.98 109.36 338.98 105.264C338.98 101.339 339.748 98.0107 341.284 95.28C342.905 92.5493 345.039 90.3733 347.684 88.752C350.329 87.1307 353.359 85.9787 356.772 85.296C360.185 84.528 363.727 84.144 367.396 84.144C369.871 84.144 372.047 84.272 373.924 84.528C375.887 84.6987 377.465 84.9547 378.66 85.296V83.504C378.66 80.2613 377.679 77.6587 375.716 75.696C373.753 73.7333 370.34 72.752 365.476 72.752C362.233 72.752 359.033 73.008 355.876 73.52C352.719 73.9467 349.988 74.5867 347.684 75.44L345.252 60.08C346.361 59.7387 347.727 59.3973 349.348 59.056C351.055 58.6293 352.889 58.288 354.852 58.032C356.815 57.6907 358.863 57.4347 360.996 57.264C363.215 57.008 365.433 56.88 367.652 56.88ZM413.57 41.904L432.642 38.832V58.672H455.554V74.544H432.642V98.224C432.642 102.235 433.325 105.435 434.69 107.824C436.141 110.213 438.999 111.408 443.266 111.408C445.314 111.408 447.405 111.237 449.538 110.896C451.757 110.469 453.762 109.915 455.554 109.232L458.242 124.08C455.938 125.019 453.378 125.829 450.562 126.512C447.746 127.195 444.29 127.536 440.194 127.536C434.989 127.536 430.679 126.853 427.266 125.488C423.853 124.037 421.122 122.075 419.074 119.6C417.026 117.04 415.575 113.968 414.722 110.384C413.954 106.8 413.57 102.832 413.57 98.48V41.904ZM531.561 92.208C531.561 97.4987 530.793 102.363 529.257 106.8C527.721 111.152 525.502 114.907 522.601 118.064C519.7 121.136 516.201 123.525 512.105 125.232C508.094 126.939 503.572 127.792 498.537 127.792C493.588 127.792 489.065 126.939 484.969 125.232C480.958 123.525 477.502 121.136 474.601 118.064C471.7 114.907 469.438 111.152 467.817 106.8C466.196 102.363 465.385 97.4987 465.385 92.208C465.385 86.9173 466.196 82.096 467.817 77.744C469.524 73.392 471.828 69.68 474.729 66.608C477.716 63.536 481.214 61.1467 485.225 59.44C489.321 57.7333 493.758 56.88 498.537 56.88C503.401 56.88 507.838 57.7333 511.849 59.44C515.945 61.1467 519.444 63.536 522.345 66.608C525.246 69.68 527.508 73.392 529.129 77.744C530.75 82.096 531.561 86.9173 531.561 92.208ZM512.105 92.208C512.105 86.32 510.91 81.712 508.521 78.384C506.217 74.9707 502.889 73.264 498.537 73.264C494.185 73.264 490.814 74.9707 488.425 78.384C486.036 81.712 484.841 86.32 484.841 92.208C484.841 98.096 486.036 102.789 488.425 106.288C490.814 109.701 494.185 111.408 498.537 111.408C502.889 111.408 506.217 109.701 508.521 106.288C510.91 102.789 512.105 98.096 512.105 92.208ZM586.911 75.568C585.204 75.1413 583.199 74.7147 580.895 74.288C578.591 73.776 576.116 73.52 573.471 73.52C572.276 73.52 570.826 73.648 569.119 73.904C567.498 74.0747 566.26 74.288 565.407 74.544V126H546.335V62.256C549.748 61.0613 553.759 59.952 558.367 58.928C563.06 57.8187 568.266 57.264 573.983 57.264C575.007 57.264 576.244 57.3493 577.695 57.52C579.146 57.6053 580.596 57.776 582.047 58.032C583.498 58.2027 584.948 58.4587 586.399 58.8C587.85 59.056 589.087 59.3973 590.111 59.824L586.911 75.568Z" fill="#A70000"/>
</svg>
